<svg version="1.0" xmlns="http://www.w3.org/2000/svg" width="100%" height="100%" viewBox="0 0 236.000000 236.000000">
  <g transform="translate(0.000000,236.000000) scale(0.100000,-0.100000)" fill="#000000" stroke="none">
  <path d="M1076 2335 c-112 -43 -153 -115 -169 -303 l-11 -129 -44 90 c-46 94
  -110 169 -173 203 -51 28 -171 26 -225 -3 -85 -45 -130 -132 -122 -236 6 -70
  56 -221 146 -440 84 -205 83 -196 21 -147 -71 56 -116 77 -186 89 -97 15 -181
  -8 -234 -66 -63 -67 -82 -154 -54 -249 22 -78 43 -111 140 -221 44 -51 110
  -140 145 -198 121 -198 138 -220 292 -373 l153 -153 0 -78 c0 -51 5 -84 14
  -94 12 -15 43 -17 262 -17 136 0 259 4 273 10 37 14 100 74 136 131 18 27 35
  49 39 49 3 0 16 -18 29 -41 68 -119 135 -155 270 -146 48 3 95 9 105 12 30 12
  39 40 26 90 -18 71 -7 211 21 265 24 47 84 132 133 189 35 41 102 176 122 246
  8 28 30 136 49 240 20 105 51 253 71 329 26 102 37 168 41 254 l6 117 -31 48
  c-42 64 -120 103 -190 93 -79 -11 -133 -52 -214 -166 -17 -24 -17 -22 -11 77
  15 246 -69 387 -239 400 -81 7 -128 -8 -182 -58 l-42 -39 -12 54 c-26 117
  -105 177 -240 183 -50 2 -89 -2 -115 -12z m203 -123 c49 -36 54 -69 61 -452 3
  -195 10 -363 14 -373 18 -40 91 -28 100 16 3 12 10 117 16 234 17 323 33 393
  105 442 28 19 44 23 80 19 61 -7 93 -31 118 -86 20 -44 21 -65 21 -347 l1
  -299 28 -10 c30 -11 54 -2 69 25 4 8 28 67 52 131 84 219 164 305 245 263 17
  -8 36 -25 42 -37 19 -35 2 -185 -37 -337 -19 -74 -50 -221 -70 -326 -51 -280
  -77 -346 -190 -488 -36 -45 -81 -115 -101 -155 -35 -70 -37 -80 -41 -193 l-4
  -119 -48 0 c-60 0 -94 26 -147 111 -70 114 -152 118 -224 11 -18 -26 -48 -64
  -67 -85 l-36 -37 -198 0 -198 0 0 33 c0 83 -15 105 -184 273 -149 149 -167
  171 -241 295 -74 124 -108 170 -246 334 -88 106 -99 209 -28 269 42 36 124 36
  196 1 53 -27 147 -119 225 -222 51 -67 76 -77 110 -46 10 9 18 28 18 42 0 56
  -73 300 -137 454 -89 219 -142 374 -143 420 -1 82 56 137 139 137 36 0 103
  -49 137 -99 33 -50 98 -202 135 -313 21 -66 69 -274 69 -303 0 -2 7 -11 16
  -19 21 -21 57 -20 77 2 13 15 15 46 9 257 -4 132 -4 299 -1 372 7 149 20 185
  79 216 45 23 141 18 179 -11z"/>
  <path d="M1364 1055 c-24 -24 -24 -27 -20 -147 2 -68 5 -191 5 -275 1 -164 7
  -183 56 -183 51 0 55 21 55 313 l0 268 -25 24 c-30 31 -40 31 -71 0z"/>
  <path d="M1672 1064 c-22 -15 -22 -17 -22 -298 0 -268 1 -284 20 -301 24 -21
  65 -14 80 15 14 26 9 565 -5 578 -20 19 -51 22 -73 6z"/>
  <path d="M1067 1052 c-15 -16 -17 -51 -17 -280 0 -143 4 -272 9 -285 17 -45
  79 -47 98 -4 5 12 9 38 8 57 0 19 -2 139 -3 267 -2 195 -4 234 -18 247 -21 21
  -57 20 -77 -2z"/>
  </g>
</svg>
